# xmcd
# 
# Track frame offsets:
#     150
#     10165
#     20960
#     33250
#     43267
#     53575
#     63407
#     74757
#     82977
#     92907
#     106607
#     114582
#     122990
#     136390
#     147982
#     159660
#     178257
#     192270
# 
# Disc length: 2795
# 
# Revision: 25
# Processed by: cddbd v1.5.2PL0 Copyright (c) Steve Scherf et al.
# Submitted via: fre:ac v1.0.31
# 
DISCID=050ae912
DTITLE=Johnny Cash - The Essential Johnny Cash Disc 1
DYEAR=2002
DGENRE=Country
TTITLE0=Hey, Porter
TTITLE1=Cry, Cry, Cry
TTITLE2=I Walk The Line
TTITLE3=Get Rhythm
TTITLE4=There You Go
TTITLE5=Ballad Of A Teenage Queen
TTITLE6=Big River
TTITLE7=Guess Things Happen That Way
TTITLE8=All Over Again
TTITLE9=Don't Take Your Guns To Town
TTITLE10=Five Feet High And Rising
TTITLE11=The Rebel -  Johnny Yuma
TTITLE12=Tennessee Flat-Top Box
TTITLE13=I Still Miss Someone
TTITLE14=Ring Of Fire
TTITLE15=The Ballad Of Ira Hayes
TTITLE16=Orange Blossom Special
TTITLE17=Were You There (When They Crucified My Lord) (w/The Carter Family)
EXTD=
EXTT0=
EXTT1=
EXTT2=
EXTT3=
EXTT4=
EXTT5=
EXTT6=
EXTT7=
EXTT8=
EXTT9=
EXTT10=
EXTT11=
EXTT12=
EXTT13=
EXTT14=
EXTT15=
EXTT16=
EXTT17=
PLAYORDER=
